<svg xmlns="http://www.w3.org/2000/svg" width="28.451" height="21.229" viewBox="0 0 28.451 21.229">
  <g id="Grupo_1" data-name="Grupo 1" transform="translate(28.451 22.156) rotate(180)">
    <path id="Caminho_1" data-name="Caminho 1" d="M0,6.794A1.581,1.581,0,0,1,1.581,5.213h25.29a1.581,1.581,0,1,1,0,3.161H1.581A1.581,1.581,0,0,1,0,6.794Z" transform="translate(0 4.747)" fill="#858585" fill-rule="evenodd"/>
    <path id="Caminho_2" data-name="Caminho 2" d="M8.176,21.693a1.581,1.581,0,0,1,0-2.235l7.916-7.916L8.176,3.625A1.581,1.581,0,1,1,10.412,1.39l9.034,9.034a1.581,1.581,0,0,1,0,2.235l-9.034,9.034A1.581,1.581,0,0,1,8.176,21.693Z" transform="translate(8.543 0)" fill="#858585" fill-rule="evenodd"/>
  </g>
</svg>
