<svg xmlns="http://www.w3.org/2000/svg" width="24" height="24" viewBox="0 0 24 24">
  <g id="blog-on" transform="translate(-1144 -617)">
    <rect id="Retângulo_23" data-name="Retângulo 23" width="24" height="24" transform="translate(1144 617)" fill="none"/>
    <g id="Grupo_36" data-name="Grupo 36" transform="translate(1145.75 618.75)">
      <path id="Caminho_36" data-name="Caminho 36" d="M7.37,5.75A1.62,1.62,0,0,0,5.75,7.37V8.987h4.659a1.618,1.618,0,1,0,0-3.237Zm3.039,4.737H5a.75.75,0,0,1-.75-.75V7.37A3.12,3.12,0,0,1,7.37,4.25h3.039a3.119,3.119,0,0,1,0,6.237Z" fill="#fff" fill-rule="evenodd"/>
      <path id="Caminho_37" data-name="Caminho 37" d="M4.25,9.737A.75.75,0,0,1,5,8.987h7.632A3.118,3.118,0,0,1,15.75,12.1v.526h0a3.118,3.118,0,0,1-3.118,3.119H7.37a3.12,3.12,0,0,1-3.12-3.12Zm1.5.75V12.63a1.62,1.62,0,0,0,1.62,1.62h5.262a1.618,1.618,0,0,0,1.618-1.619V12.1a1.618,1.618,0,0,0-1.618-1.618Z" fill="#fff" fill-rule="evenodd"/>
      <path id="Caminho_38" data-name="Caminho 38" d="M5.5,1.75A3.75,3.75,0,0,0,1.75,5.5v9A3.746,3.746,0,0,0,5.5,18.25H14.5a3.746,3.746,0,0,0,3.746-3.745h0V5.5A3.746,3.746,0,0,0,14.5,1.75Zm0-1.5A5.25,5.25,0,0,0,.25,5.5v9A5.246,5.246,0,0,0,5.5,19.75H14.5a5.246,5.246,0,0,0,5.246-5.245V5.5A5.246,5.246,0,0,0,14.5.25Z" fill="#fff" fill-rule="evenodd"/>
    </g>
  </g>
</svg>
