<svg xmlns="http://www.w3.org/2000/svg" width="24" height="24" viewBox="0 0 24 24">
  <g id="category-off" transform="translate(-1063 -643)">
    <rect id="Retângulo_18" data-name="Retângulo 18" width="24" height="24" transform="translate(1063 643)" fill="none"/>
    <g id="Grupo_31" data-name="Grupo 31" transform="translate(1064.595 644.6)">
      <path id="Caminho_27" data-name="Caminho 27" d="M2.784,1.9a.879.879,0,0,0-.879.879V6.894a.879.879,0,0,0,.879.879H6.9a.879.879,0,0,0,.879-.879V2.779A.879.879,0,0,0,6.9,1.9ZM.405,2.779A2.379,2.379,0,0,1,2.784.4H6.9A2.379,2.379,0,0,1,9.278,2.779V6.894A2.379,2.379,0,0,1,6.9,9.273H2.784A2.379,2.379,0,0,1,.405,6.894Z" fill="#858585" fill-rule="evenodd"/>
      <path id="Caminho_28" data-name="Caminho 28" d="M2.784,12.222a.879.879,0,0,0-.879.879v4.115a.879.879,0,0,0,.879.879H6.9a.879.879,0,0,0,.879-.879V13.1a.879.879,0,0,0-.879-.879ZM.405,13.1a2.379,2.379,0,0,1,2.379-2.379H6.9A2.379,2.379,0,0,1,9.278,13.1v4.115A2.379,2.379,0,0,1,6.9,19.595H2.784A2.379,2.379,0,0,1,.405,17.216Z" fill="#858585" fill-rule="evenodd"/>
      <path id="Caminho_29" data-name="Caminho 29" d="M13.106,1.9a.879.879,0,0,0-.879.879V6.894a.879.879,0,0,0,.879.879h4.115a.879.879,0,0,0,.879-.879V2.779a.879.879,0,0,0-.879-.879Zm-2.379.879A2.379,2.379,0,0,1,13.106.4h4.115A2.379,2.379,0,0,1,19.6,2.779V6.894a2.379,2.379,0,0,1-2.379,2.379H13.106a2.379,2.379,0,0,1-2.379-2.379Z" fill="#858585" fill-rule="evenodd"/>
      <path id="Caminho_30" data-name="Caminho 30" d="M13.106,12.222a.879.879,0,0,0-.879.879v4.115a.879.879,0,0,0,.879.879h4.115a.879.879,0,0,0,.879-.879V13.1a.879.879,0,0,0-.879-.879Zm-2.379.879a2.379,2.379,0,0,1,2.379-2.379h4.115A2.379,2.379,0,0,1,19.6,13.1v4.115a2.379,2.379,0,0,1-2.379,2.379H13.106a2.379,2.379,0,0,1-2.379-2.379Z" fill="#858585" fill-rule="evenodd"/>
    </g>
  </g>
</svg>
