<svg xmlns="http://www.w3.org/2000/svg" width="54.107" height="54.14" viewBox="0 0 54.107 54.14">
  <g id="Grupo_1" data-name="Grupo 1" transform="translate(-3.001 -3.025)">
    <path id="Caminho_1" data-name="Caminho 1" d="M31.859,21.664a2.484,2.484,0,0,0-1.44-.116l-.065.013a21.885,21.885,0,0,1-7.616.061,2.084,2.084,0,0,1,.692-4.11,17.713,17.713,0,0,0,6.137-.044A6.651,6.651,0,0,1,36.531,27.59l-.033.05a27.092,27.092,0,0,1-3.16,3.793l0,0a29.311,29.311,0,0,1-4.247,3.5,2.084,2.084,0,1,1-2.335-3.452,25.16,25.16,0,0,0,3.642-3A22.908,22.908,0,0,0,33.047,25.3a2.484,2.484,0,0,0-1.188-3.639Z" transform="translate(19.508 15.495)" fill="#37e89e" fill-rule="evenodd"/>
    <path id="Caminho_2" data-name="Caminho 2" d="M19.054,7.613a2.5,2.5,0,0,0-2.789.01A25.634,25.634,0,0,0,12.9,10.534a22.794,22.794,0,0,0-3.256,4.3,2.084,2.084,0,1,1-3.6-2.105A26.96,26.96,0,0,1,9.9,7.639l.006-.006h0a29.8,29.8,0,0,1,3.943-3.405l.037-.026A6.668,6.668,0,0,1,24.2,11.035a18.921,18.921,0,0,0,.155,7.38,2.084,2.084,0,1,1-4.07.9,23.089,23.089,0,0,1-.183-9.04q.006-.032.013-.064a2.5,2.5,0,0,0-1.06-2.6Z" transform="translate(2.99 0)" fill="#37e89e" fill-rule="evenodd"/>
    <path id="Caminho_3" data-name="Caminho 3" d="M27.537,16.125a3.159,3.159,0,0,0-1.8.151L9.194,22.754h0A3.2,3.2,0,0,0,7.4,26.927,29.545,29.545,0,0,0,23.621,43.156a3.187,3.187,0,0,0,4.165-1.791L34.26,24.81a3.17,3.17,0,0,0-.708-3.4s0,0,0,0l-4.423-4.426A3.166,3.166,0,0,0,27.537,16.125Zm4.538-2.084a7.33,7.33,0,0,0-7.86-1.645h0L7.671,18.875h0a7.363,7.363,0,0,0-4.127,9.618A33.711,33.711,0,0,0,22.05,47.017a7.354,7.354,0,0,0,9.617-4.132l6.474-16.556A7.338,7.338,0,0,0,36.5,18.467Z" transform="translate(0 9.608)" fill-rule="evenodd"/>
    <path id="Caminho_4" data-name="Caminho 4" d="M22.115,17.623a2.084,2.084,0,0,1,2.6-1.386,9.926,9.926,0,0,0,2,.39l.034,0a7.349,7.349,0,0,1,6.17,4.925l0,.008,4.033,11.929a4.721,4.721,0,0,1-2.721,5.864A30.685,30.685,0,0,1,16.06,40.992a2.084,2.084,0,0,1,.877-4.074A26.517,26.517,0,0,0,32.651,35.5l.025-.01A.553.553,0,0,0,33,34.807l-4.023-11.9v0a3.181,3.181,0,0,0-2.655-2.127,14.082,14.082,0,0,1-2.817-.553A2.084,2.084,0,0,1,22.115,17.623Z" transform="translate(12.37 14.22)" fill-rule="evenodd"/>
    <path id="Caminho_5" data-name="Caminho 5" d="M10.078,11.369a.545.545,0,0,0-.691.34l-.012.036a26.641,26.641,0,0,0-1.005,14.61,2.084,2.084,0,0,1-4.076.868A30.809,30.809,0,0,1,5.45,10.343a4.712,4.712,0,0,1,5.969-2.919L23.847,11.64a7.171,7.171,0,0,1,4.873,5.554c.005.027.009.054.013.082a6.435,6.435,0,0,0,.294,1.217,2.084,2.084,0,1,1-3.936,1.368,10.578,10.578,0,0,1-.477-1.958,3,3,0,0,0-2.044-2.3l-.042-.014Z" transform="translate(0.669 4.495)" fill-rule="evenodd"/>
  </g>
</svg>
