<svg xmlns="http://www.w3.org/2000/svg" width="24" height="24" viewBox="0 0 24 24">
  <g id="dashboard-on" transform="translate(-982 -617)">
    <rect id="Retângulo_3" data-name="Retângulo 3" width="24" height="24" transform="translate(982 617)" fill="none"/>
    <g id="Grupo_26" data-name="Grupo 26" transform="translate(981.75 616.75)">
      <path id="Caminho_13" data-name="Caminho 13" d="M3.75,5.075A1.325,1.325,0,0,1,5.075,3.75H18.924A1.325,1.325,0,0,1,20.25,5.075v9.849a1.325,1.325,0,0,1-1.325,1.326H5.075A1.325,1.325,0,0,1,3.75,14.925ZM8.039,17.75H5.075A2.825,2.825,0,0,1,2.25,14.925V5.075A2.825,2.825,0,0,1,5.075,2.25H18.924A2.825,2.825,0,0,1,21.75,5.075v9.849a2.825,2.825,0,0,1-2.825,2.826H15.961l.767,3.068a.75.75,0,0,1-1.455.364l-.858-3.432H9.586l-.858,3.432a.75.75,0,0,1-1.455-.364Z" fill="#fff" fill-rule="evenodd"/>
      <path id="Caminho_14" data-name="Caminho 14" d="M11.25,7a.75.75,0,0,0-1.5,0v6a.75.75,0,0,0,1.5,0Zm-3,3.27a.75.75,0,1,0-1.5,0V13a.75.75,0,0,0,1.5,0ZM13.5,8.93a.75.75,0,0,1,.75.75V13a.75.75,0,0,1-1.5,0V9.68A.75.75,0,0,1,13.5,8.93Zm3.75-1.38a.75.75,0,0,0-1.5,0V13a.75.75,0,0,0,1.5,0Z" fill="#fff" fill-rule="evenodd"/>
    </g>
  </g>
</svg>
