<svg xmlns="http://www.w3.org/2000/svg" width="19.5" height="19.5" viewBox="0 0 19.5 19.5">
  <g id="done" transform="translate(-2.25 -2.25)">
    <path id="Caminho_19" data-name="Caminho 19" d="M12,3.75A8.25,8.25,0,1,0,20.25,12,8.249,8.249,0,0,0,12,3.75ZM2.25,12A9.75,9.75,0,1,1,12,21.75,9.749,9.749,0,0,1,2.25,12Z" fill-rule="evenodd"/>
    <path id="Caminho_20" data-name="Caminho 20" d="M16.53,9.47a.75.75,0,0,1,0,1.061l-5,5a.75.75,0,0,1-1.061,0l-3-3A.75.75,0,1,1,8.53,11.47L11,13.939l4.47-4.47A.75.75,0,0,1,16.53,9.47Z" fill-rule="evenodd"/>
  </g>
</svg>
