<svg xmlns="http://www.w3.org/2000/svg" width="33" height="33" viewBox="0 0 33 33">
  <g id="home-off" transform="translate(-825 -649)">
    <rect id="Retângulo_5" data-name="Retângulo 5" width="33" height="33" transform="translate(825 649)" fill="none"/>
    <path id="Caminho_2" data-name="Caminho 2" d="M12.37.226a1,1,0,0,1,1.266,0L24.655,9.244A3.665,3.665,0,0,1,26,12.081V22.333A3.667,3.667,0,0,1,22.333,26H3.667A3.667,3.667,0,0,1,0,22.333V12.083A3.662,3.662,0,0,1,1.346,9.244h0ZM1.979,10.019l.632.775A1.663,1.663,0,0,0,2,12.083V22.333A1.667,1.667,0,0,0,3.667,24H22.333A1.667,1.667,0,0,0,24,22.333V12.081a1.665,1.665,0,0,0-.61-1.288L13,2.292l-10.391,8.5Z" transform="translate(829 653)" fill="#858585" fill-rule="evenodd"/>
  </g>
</svg>
