<svg xmlns="http://www.w3.org/2000/svg" width="45" height="43" viewBox="0 0 45 43">
  <path id="logo" d="M24.929,34.212l2.71-2.248a14.712,14.712,0,0,1,1.253-.934,13.557,13.557,0,0,1,7.067-2.348A12.745,12.745,0,0,1,43.506,30.8L45,28.35A20.12,20.12,0,0,0,42.561,27.1,21.5,21.5,0,0,0,33.42,3.464,21.682,21.682,0,0,0,2.346,11.789,21.457,21.457,0,0,0,.028,20.447c0,.1-.064,2.379,0,2.849L2.9,23.011c-.021-.3,0-2.124.024-2.427A18.654,18.654,0,0,1,9.775,6.977,18.777,18.777,0,0,1,40.22,18.432a18.6,18.6,0,0,1-.382,7.77,14.474,14.474,0,0,0-3.964-.382A16.234,16.234,0,0,0,28.2,28.083,14.951,14.951,0,0,0,22.523,17l-.848-.607L20.828,17a14.939,14.939,0,0,0-5.68,11.143c-4.573-2.227-12.272-1.1-12.619-1.05l-1.759.267.625,1.66a21.719,21.719,0,0,0,37.944,4.918l-2.351-1.666A18.824,18.824,0,0,1,4.846,29.731c2.881-.215,7.354-.182,9.613,1.323a14.379,14.379,0,0,1,1.253.931l2.71,2.248-.351-3.492A14.346,14.346,0,0,1,18,29.276a12.677,12.677,0,0,1,3.689-9.244,12.687,12.687,0,0,1,3.683,9.244,14.227,14.227,0,0,1-.076,1.462Z" fill="#37e89e"/>
</svg>
