<svg id="Grupo_1" data-name="Grupo 1" xmlns="http://www.w3.org/2000/svg" width="19.5" height="19.5" viewBox="0 0 19.5 19.5">
  <path id="Caminho_22" data-name="Caminho 22" d="M13.109,7.7a.75.75,0,0,0-1.061-1.061l-2.3,2.3-2.3-2.3A.75.75,0,0,0,6.391,7.7l2.3,2.3-2.3,2.3a.75.75,0,0,0,1.061,1.061l2.3-2.3,2.3,2.3A.75.75,0,0,0,13.109,12.3l-2.3-2.3Z" fill="#e84a4d"/>
  <path id="Caminho_23" data-name="Caminho 23" d="M9.75,1.5a8.25,8.25,0,1,0,5.834,2.416A8.25,8.25,0,0,0,9.75,1.5ZM2.856,2.856A9.75,9.75,0,1,1,0,9.75,9.75,9.75,0,0,1,2.856,2.856Z" fill="#e84a4d" fill-rule="evenodd"/>
</svg>
