<svg xmlns="http://www.w3.org/2000/svg" width="24" height="24" viewBox="0 0 24 24">
  <g id="marketing-off" transform="translate(-1171 -643)">
    <rect id="Retângulo_26" data-name="Retângulo 26" width="24" height="24" transform="translate(1171 643)" fill="none"/>
    <g id="Grupo_38" data-name="Grupo 38" transform="translate(1170.75 642.751)">
      <path id="Caminho_39" data-name="Caminho 39" d="M15.3,8.521a.75.75,0,1,0-.671-1.342L8.7,10.139a.75.75,0,1,0,.671,1.342Zm-5.92,4A.75.75,0,1,0,8.7,13.861l5.92,2.96a.75.75,0,1,0,.671-1.342Z" fill="#858585" fill-rule="evenodd"/>
      <path id="Caminho_40" data-name="Caminho 40" d="M17.333,4.749a1.919,1.919,0,1,0,1.355.563l-.027-.029A1.918,1.918,0,0,0,17.333,4.749Zm2.453-.46L19.75,4.25a3.661,3.661,0,1,0,.036.039ZM6.667,10.083a1.917,1.917,0,1,0,1.356.562A1.917,1.917,0,0,0,6.667,10.083Zm-2.416-.5A3.417,3.417,0,1,1,3.25,12,3.417,3.417,0,0,1,4.251,9.584Zm11.727,6.394a1.917,1.917,0,1,1-.561,1.356A1.917,1.917,0,0,1,15.977,15.977Zm1.356-2.061a3.417,3.417,0,1,1-2.416,1A3.417,3.417,0,0,1,17.333,13.916Z" fill="#858585" fill-rule="evenodd"/>
    </g>
  </g>
</svg>
