<svg xmlns="http://www.w3.org/2000/svg" width="33" height="33" viewBox="0 0 33 33">
  <g id="message-on" transform="translate(-861 -614)">
    <rect id="Retângulo_7" data-name="Retângulo 7" width="33" height="33" transform="translate(861 614)" fill="none"/>
    <path id="Caminho_45" data-name="Caminho 45" d="M11,0A3.086,3.086,0,0,0,9.912.2a2.877,2.877,0,0,0-.923.562,2.591,2.591,0,0,0-.617.841,2.4,2.4,0,0,0-.217.992v.921a.692.692,0,0,0,.042.239,7.655,7.655,0,0,0-1.089.338A7.49,7.49,0,0,0,4.691,5.632,7.2,7.2,0,0,0,3.05,7.974a7.005,7.005,0,0,0-.583,2.8V13.9l0,.006a.108.108,0,0,1-.025.034l-.754.718a4.323,4.323,0,0,0-1.352,3.13,4.2,4.2,0,0,0,1.314,3.043,4.415,4.415,0,0,0,3.044,1.209H17.309a4.453,4.453,0,0,0,1.634-.31,4.366,4.366,0,0,0,1.41-.9,4.249,4.249,0,0,0,.967-1.381,4.165,4.165,0,0,0,.346-1.662,4.324,4.324,0,0,0-1.352-3.13l-.754-.719a.108.108,0,0,1-.025-.034V10.769a7.007,7.007,0,0,0-.583-2.8A7.2,7.2,0,0,0,17.31,5.632a7.491,7.491,0,0,0-2.419-1.541A7.652,7.652,0,0,0,13.8,3.753a.69.69,0,0,0,.042-.239V2.593a2.394,2.394,0,0,0-.217-.992,2.589,2.589,0,0,0-.617-.841A2.877,2.877,0,0,0,12.089.2,3.086,3.086,0,0,0,11,0Zm1.194,3.557c0-.014,0-.028,0-.043V2.593a1,1,0,0,0-.091-.416,1.086,1.086,0,0,0-.259-.353,1.207,1.207,0,0,0-.387-.236,1.3,1.3,0,0,0-.913,0,1.207,1.207,0,0,0-.387.236,1.087,1.087,0,0,0-.259.353,1,1,0,0,0-.091.416v.921q0,.021,0,.043h2.388ZM4.6,10.737c0,.01,0,.021,0,.032V13.9a2.189,2.189,0,0,1-.69,1.585l-.754.719a2.19,2.19,0,0,0-.69,1.585,2.069,2.069,0,0,0,.652,1.5,2.282,2.282,0,0,0,1.573.621H17.309a2.32,2.32,0,0,0,.851-.161,2.235,2.235,0,0,0,.722-.459,2.114,2.114,0,0,0,.482-.687,2.032,2.032,0,0,0,.169-.811,2.189,2.189,0,0,0-.69-1.585l-.754-.719A2.189,2.189,0,0,1,17.4,13.9V10.768a4.87,4.87,0,0,0-.406-1.944,5.071,5.071,0,0,0-1.156-1.648,5.357,5.357,0,0,0-1.73-1.1,5.563,5.563,0,0,0-2.041-.386H9.933a5.571,5.571,0,0,0-1.807.3q-.118.04-.234.086a5.357,5.357,0,0,0-1.73,1.1A5.07,5.07,0,0,0,5.006,8.824,4.87,4.87,0,0,0,4.6,10.737Z" transform="translate(866.667 619)" fill="#fff" fill-rule="evenodd"/>
  </g>
</svg>
