<svg xmlns="http://www.w3.org/2000/svg" width="15.5" height="19.5" viewBox="0 0 15.5 19.5">
  <g id="order" transform="translate(-4.25 -2.25)">
    <path id="Caminho_12" data-name="Caminho 12" d="M12,7.75a2.25,2.25,0,1,0,1.591.659A2.25,2.25,0,0,0,12,7.75Zm-2.652-.4A3.75,3.75,0,1,1,8.25,10,3.75,3.75,0,0,1,9.348,7.348Z" fill-rule="evenodd"/>
    <path id="Caminho_13" data-name="Caminho 13" d="M12,3.75A6.25,6.25,0,0,0,5.75,10c0,2.338,1.587,4.908,3.325,6.988a29.786,29.786,0,0,0,2.346,2.487c.222.21.417.389.578.532.161-.144.357-.323.578-.532a29.785,29.785,0,0,0,2.346-2.487c1.738-2.08,3.325-4.649,3.325-6.988A6.25,6.25,0,0,0,12,3.75ZM12,21l-.476.579,0,0,0,0-.017-.014-.063-.053c-.054-.046-.132-.113-.231-.2-.2-.173-.479-.425-.815-.743A31.3,31.3,0,0,1,7.925,17.95C6.163,15.842,4.25,12.912,4.25,10a7.75,7.75,0,1,1,15.5,0c0,2.912-1.913,5.842-3.674,7.95a31.3,31.3,0,0,1-2.466,2.615c-.336.318-.617.57-.815.743-.1.087-.177.154-.231.2l-.063.053-.017.014,0,0h0S12.476,21.58,12,21Zm0,0,.476.58a.751.751,0,0,1-.953,0Z" fill-rule="evenodd"/>
  </g>
</svg>
