<svg xmlns="http://www.w3.org/2000/svg" width="20.5" height="20.5" viewBox="0 0 20.5 20.5">
  <g id="created-orders" transform="translate(-2.25 -2.25)">
    <path id="Caminho_3" data-name="Caminho 3" d="M20,11V5a2,2,0,0,0-2-2H5A2,2,0,0,0,3,5V19a2,2,0,0,0,2,2h5" fill="none" stroke="#858585" stroke-linecap="round" stroke-linejoin="round" stroke-width="1.5"/>
    <path id="Caminho_4" data-name="Caminho 4" d="M9.25,15H10" fill="none" stroke="#858585" stroke-linecap="round" stroke-linejoin="round" stroke-width="1.5"/>
    <path id="Caminho_5" data-name="Caminho 5" d="M17.5,13.818V17" fill="none" stroke="#858585" stroke-linecap="round" stroke-linejoin="round" stroke-width="1.5"/>
    <path id="Caminho_6" data-name="Caminho 6" d="M21,22H14.125A1.125,1.125,0,0,1,13,20.875V16.567a2.007,2.007,0,0,1,.161-.786l.547-1.28a1.126,1.126,0,0,1,1.035-.683h5.514a1.125,1.125,0,0,1,1.034.683l.548,1.282a2,2,0,0,1,.161.786V21a1,1,0,0,1-1,1Z" fill="none" stroke="#858585" stroke-linecap="round" stroke-linejoin="round" stroke-width="1.5"/>
    <path id="Caminho_7" data-name="Caminho 7" d="M22,18a1,1,0,0,0-1-1H14a1,1,0,0,0-1,1" fill="none" stroke="#858585" stroke-linecap="round" stroke-linejoin="round" stroke-width="1.5"/>
    <path id="Caminho_8" data-name="Caminho 8" d="M9.25,11H13" fill="none" stroke="#858585" stroke-linecap="round" stroke-linejoin="round" stroke-width="1.5"/>
    <path id="Caminho_9" data-name="Caminho 9" d="M9.25,7.125H16" fill="none" stroke="#858585" stroke-linecap="round" stroke-linejoin="round" stroke-width="1.5"/>
    <path id="Caminho_10" data-name="Caminho 10" d="M6.75,7.8a.75.75,0,1,0-.53-.22A.75.75,0,0,0,6.75,7.8Z" fill="#858585"/>
    <path id="Caminho_11" data-name="Caminho 11" d="M6.75,11.8a.75.75,0,1,0-.53-.22A.75.75,0,0,0,6.75,11.8Z" fill="#858585"/>
    <path id="Caminho_12" data-name="Caminho 12" d="M6.75,15.7a.75.75,0,1,0-.53-.22A.75.75,0,0,0,6.75,15.7Z" fill="#858585"/>
  </g>
</svg>
