<svg xmlns="http://www.w3.org/2000/svg" width="19.5" height="21.5" viewBox="0 0 19.5 21.5">
  <g id="paid-orders" transform="translate(-0.25 -0.25)">
    <path id="Caminho_13" data-name="Caminho 13" d="M6.885,1.844h0L5.75,3.263V4A.25.25,0,0,0,6,4.25h6A.25.25,0,0,0,12.25,4V3.263L11.116,1.844h0a.251.251,0,0,0-.2-.094H7.081A.251.251,0,0,0,6.885,1.844ZM13,3l.586-.468L12.287.907h0A1.751,1.751,0,0,0,10.92.25H7.081A1.751,1.751,0,0,0,5.715.906l-1.3,1.626A.75.75,0,0,0,4.25,3V3H5v.75A.75.75,0,0,1,4.25,3V4A1.75,1.75,0,0,0,6,5.75h6A1.75,1.75,0,0,0,13.75,4V3Z" fill="#858585" fill-rule="evenodd"/>
    <path id="Caminho_14" data-name="Caminho 14" d="M4.25,16A.75.75,0,0,1,5,15.25H7a.75.75,0,0,1,0,1.5H5A.75.75,0,0,1,4.25,16Z" fill="#858585" fill-rule="evenodd"/>
    <path id="Caminho_15" data-name="Caminho 15" d="M4.25,8A.75.75,0,0,1,5,7.25h8a.75.75,0,0,1,0,1.5H5A.75.75,0,0,1,4.25,8Z" fill="#858585" fill-rule="evenodd"/>
    <path id="Caminho_16" data-name="Caminho 16" d="M4.25,12A.75.75,0,0,1,5,11.25H9a.75.75,0,0,1,0,1.5H5A.75.75,0,0,1,4.25,12Z" fill="#858585" fill-rule="evenodd"/>
    <path id="Caminho_17" data-name="Caminho 17" d="M3,3.75A1.249,1.249,0,0,0,1.75,5V18A1.249,1.249,0,0,0,3,19.25h9.355a.75.75,0,0,1,0,1.5H3A2.749,2.749,0,0,1,.25,18V5A2.749,2.749,0,0,1,3,2.25H5a.75.75,0,0,1,0,1.5Z" fill="#858585" fill-rule="evenodd"/>
    <path id="Caminho_18" data-name="Caminho 18" d="M12.25,3A.75.75,0,0,1,13,2.25h2A2.749,2.749,0,0,1,17.75,5v8.537a.75.75,0,0,1-1.5,0V5A1.249,1.249,0,0,0,15,3.75H13A.75.75,0,0,1,12.25,3Z" fill="#858585" fill-rule="evenodd"/>
    <path id="Caminho_19" data-name="Caminho 19" d="M17.309,15.581a.75.75,0,0,1,0,1.061l-2.222,2.222a.75.75,0,0,1-1.061,0l-1.334-1.333a.75.75,0,1,1,1.06-1.061l.8.8,1.692-1.692A.75.75,0,0,1,17.309,15.581Z" fill="#858585" fill-rule="evenodd"/>
    <path id="Caminho_20" data-name="Caminho 20" d="M15,13.75A3.25,3.25,0,1,0,18.25,17,3.25,3.25,0,0,0,15,13.75Zm0,8A4.75,4.75,0,1,0,10.25,17,4.75,4.75,0,0,0,15,21.75Z" fill="#858585" fill-rule="evenodd"/>
  </g>
</svg>
