<svg xmlns="http://www.w3.org/2000/svg" width="19.5" height="15.5" viewBox="0 0 19.5 15.5">
  <g id="payment" transform="translate(-2.25 -4.25)">
    <path id="Caminho_16" data-name="Caminho 16" d="M2.25,9A.75.75,0,0,1,3,8.25H21a.75.75,0,0,1,0,1.5H3A.75.75,0,0,1,2.25,9Z" fill-rule="evenodd"/>
    <path id="Caminho_17" data-name="Caminho 17" d="M6.25,13A.75.75,0,0,1,7,12.25H9.57a.75.75,0,0,1,0,1.5H7A.75.75,0,0,1,6.25,13Z" fill-rule="evenodd"/>
    <path id="Caminho_18" data-name="Caminho 18" d="M6,5.75A2.25,2.25,0,0,0,3.75,8v8A2.25,2.25,0,0,0,6,18.25H18A2.25,2.25,0,0,0,20.25,16V8A2.25,2.25,0,0,0,18,5.75Zm-2.652-.4A3.75,3.75,0,0,1,6,4.25H18A3.75,3.75,0,0,1,21.75,8v8A3.75,3.75,0,0,1,18,19.75H6A3.75,3.75,0,0,1,2.25,16V8A3.75,3.75,0,0,1,3.348,5.348Z" fill-rule="evenodd"/>
  </g>
</svg>
