<svg xmlns="http://www.w3.org/2000/svg" width="24" height="24" viewBox="0 0 24 24">
  <g id="product-on" transform="translate(-1090 -617)">
    <rect id="Retângulo_19" data-name="Retângulo 19" width="24" height="24" transform="translate(1090 617)" fill="none"/>
    <path id="Caminho_47" data-name="Caminho 47" d="M10,.252A2.751,2.751,0,0,0,8.625.62l-6.926,4A2.75,2.75,0,0,0,.324,7v8A2.749,2.749,0,0,0,1.7,17.38l6.926,4a2.752,2.752,0,0,0,1.307.367c.022,0,.045,0,.068,0s.046,0,.068,0a2.752,2.752,0,0,0,1.307-.367l6.926-4A2.75,2.75,0,0,0,19.676,15V7A2.749,2.749,0,0,0,18.3,4.619l-6.926-4A2.751,2.751,0,0,0,10,.252Zm7.551,15.829-6.8,3.927V11.433l7.426-4.288V15a1.25,1.25,0,0,1-.625,1.082Zm-8.3,3.927V11.433L5.309,9.157,5.28,9.141l-3.456-2V15a1.249,1.249,0,0,0,.625,1.082ZM7.171,8.5,14.6,4.215l2.825,1.631L10,10.134Zm-1.5-.866-3.1-1.788,6.8-3.927a1.251,1.251,0,0,1,1.25,0L13.1,3.349Z" transform="translate(1091.676 617.748)" fill="#fff" fill-rule="evenodd"/>
  </g>
</svg>
