<svg xmlns="http://www.w3.org/2000/svg" xmlns:xlink="http://www.w3.org/1999/xlink" width="16.5" height="19.5" viewBox="0 0 16.5 19.5">
  <defs>
    <linearGradient id="linear-gradient" x1="0.804" x2="0.275" y2="0.883" gradientUnits="objectBoundingBox">
      <stop offset="0" stop-color="#d7fdde"/>
      <stop offset="1" stop-color="#37e89e"/>
    </linearGradient>
  </defs>
  <path id="remove" d="M7,.25a.75.75,0,0,0,0,1.5h4a.75.75,0,0,0,0-1.5ZM.75,4a.75.75,0,0,1,.75-.75h15a.75.75,0,0,1,0,1.5h-.75v12a3.016,3.016,0,0,1-3.019,3h-7.5a2.983,2.983,0,0,1-2.981-3v-12H1.5A.75.75,0,0,1,.75,4Zm3,12.756V4.75h10.5v12a1.517,1.517,0,0,1-1.519,1.5h-7.5A1.483,1.483,0,0,1,3.75,16.756ZM11,7.25a.75.75,0,0,1,.75.75v7a.75.75,0,0,1-1.5,0V8A.75.75,0,0,1,11,7.25ZM7.75,8a.75.75,0,0,0-1.5,0v7a.75.75,0,0,0,1.5,0Z" transform="translate(-0.75 -0.25)" fill-rule="evenodd" fill="url(#linear-gradient)"/>
</svg>
