<svg xmlns="http://www.w3.org/2000/svg" xmlns:xlink="http://www.w3.org/1999/xlink" width="19.485" height="19.5" viewBox="0 0 19.485 19.5">
  <defs>
    <linearGradient id="linear-gradient" x1="0.751" x2="0.202" y2="1" gradientUnits="objectBoundingBox">
      <stop offset="0" stop-color="#d7fdde"/>
      <stop offset="1" stop-color="#37e89e"/>
    </linearGradient>
  </defs>
  <path id="save" d="M3.007.25H14.164a2.749,2.749,0,0,1,1.944.806l2.828,2.828a2.75,2.75,0,0,1,.806,1.944V17a2.75,2.75,0,0,1-2.75,2.75H3.111a2.75,2.75,0,0,1-2.75-2.729l-.1-14A2.75,2.75,0,0,1,3.007.25Zm2.743,18h8.5V11.286a.536.536,0,0,0-.535-.536H6.286a.536.536,0,0,0-.536.536Zm10,0V11.286A2.036,2.036,0,0,0,13.715,9.25H6.286A2.036,2.036,0,0,0,4.25,11.286V18.25H3.111a1.25,1.25,0,0,1-1.25-1.241l-.1-14A1.25,1.25,0,0,1,3.007,1.75H5.243V4.909a1.75,1.75,0,0,0,1.75,1.75h6a1.75,1.75,0,0,0,1.75-1.75V1.892a1.253,1.253,0,0,1,.3.224l2.828,2.828a1.25,1.25,0,0,1,.366.884V17a1.25,1.25,0,0,1-1.25,1.25ZM13.243,4.909V1.75h-6.5V4.909a.25.25,0,0,0,.25.25h6a.25.25,0,0,0,.25-.25Z" transform="translate(-0.257 -0.25)" fill-rule="evenodd" fill="url(#linear-gradient)"/>
</svg>
