<svg xmlns="http://www.w3.org/2000/svg" width="15.5" height="15.5" viewBox="0 0 15.5 15.5">
  <g id="search" transform="translate(-4.25 -4.25)">
    <path id="Caminho_10" data-name="Caminho 10" d="M15.184,7.369a5.526,5.526,0,1,0,0,7.815A5.526,5.526,0,0,0,15.184,7.369Zm1.061-1.061a7.026,7.026,0,1,0,0,9.936A7.026,7.026,0,0,0,16.244,6.308Z" fill="#37e89e" fill-rule="evenodd"/>
    <path id="Caminho_11" data-name="Caminho 11" d="M15.18,15.18a.75.75,0,0,1,1.061,0l3.29,3.29A.75.75,0,1,1,18.47,19.53l-3.29-3.29A.75.75,0,0,1,15.18,15.18Z" fill="#37e89e" fill-rule="evenodd"/>
  </g>
</svg>
