<svg xmlns="http://www.w3.org/2000/svg" width="33" height="33" viewBox="0 0 33 33">
  <g id="settings-on" transform="translate(-933 -614)">
    <rect id="Retângulo_11" data-name="Retângulo 11" width="33" height="33" transform="translate(933 614)" fill="none"/>
    <g id="Grupo_24" data-name="Grupo 24" transform="translate(935.275 616.043)">
      <path id="Caminho_8" data-name="Caminho 8" d="M14.76.957a2.339,2.339,0,0,1,2.18,1.479l.691,1.751s0,0,0,0a1.668,1.668,0,0,0,2.041.982l1.8-.552a2.339,2.339,0,0,1,2.513.778l.953,1.2a2.339,2.339,0,0,1,.2,2.623l-.94,1.635a1.667,1.667,0,0,0,.5,2.206L26.26,14.12a2.335,2.335,0,0,1,.959,2.45h0l-.34,1.49a2.34,2.34,0,0,1-1.926,1.792h0l-1.864.285a1.667,1.667,0,0,0-1.411,1.769l.137,1.884h0A2.334,2.334,0,0,1,20.5,26.062l-1.382.666a2.338,2.338,0,0,1-2.6-.389h0l-1.385-1.28a1.667,1.667,0,0,0-2.263,0L11.483,26.34a2.34,2.34,0,0,1-2.6.388L7.5,26.064a2.339,2.339,0,0,1-1.317-2.276l.137-1.881a1.667,1.667,0,0,0-1.411-1.769l-1.864-.285a2.336,2.336,0,0,1-1.926-1.794h0l-.34-1.489h0a2.338,2.338,0,0,1,.957-2.45l1.537-1.053a1.667,1.667,0,0,0,.5-2.218h0L2.813,9.209A2.337,2.337,0,0,1,3,6.575H3l.946-1.2a2.339,2.339,0,0,1,2.52-.784l1.877.576a1.667,1.667,0,0,0,2.044-.988m0,0,.673-1.731h0A2.339,2.339,0,0,1,13.232.961l1.528,0M3.2,18.863l.151-.989,1.864.285h0a3.667,3.667,0,0,1,3.1,3.892h0l-.137,1.881a.338.338,0,0,0,.191.329l1.378.664a.341.341,0,0,0,.378-.057h0l1.384-1.279h0a3.667,3.667,0,0,1,4.977,0h0l1.385,1.28a.338.338,0,0,0,.377.056l1.381-.665a.333.333,0,0,0,.188-.325l-.137-1.884h0a3.667,3.667,0,0,1,3.1-3.892h0l1.864-.285a.34.34,0,0,0,.279-.26h0l.34-1.492a.335.335,0,0,0-.138-.351l-1.557-1.066a3.667,3.667,0,0,1-1.107-4.853l.94-1.634a.339.339,0,0,0-.029-.38l-.954-1.2h0a.339.339,0,0,0-.364-.113l-1.8.552a3.668,3.668,0,0,1-4.487-2.159l-.691-1.75a.339.339,0,0,0-.316-.214h0l-1.528,0h0a.339.339,0,0,0-.315.216l-.673,1.731A3.667,3.667,0,0,1,7.755,7.083L5.877,6.507a.339.339,0,0,0-.365.113h0l-.946,1.2a.337.337,0,0,0-.027.38m0,0L5.5,9.835a3.667,3.667,0,0,1-1.091,4.88L2.872,15.769h0a.337.337,0,0,0-.139.353l.341,1.494a.336.336,0,0,0,.277.258l-.151.989" fill="#fff" fill-rule="evenodd"/>
      <path id="Caminho_9" data-name="Caminho 9" d="M15.85,12.155a2.613,2.613,0,1,0,.57.848A2.613,2.613,0,0,0,15.85,12.155Zm1.41-1.418a4.614,4.614,0,1,0,1.006,1.5A4.613,4.613,0,0,0,17.26,10.736Z" fill="#fff" fill-rule="evenodd"/>
    </g>
  </g>
</svg>
