<svg xmlns="http://www.w3.org/2000/svg" width="9" height="18" viewBox="0 0 9 18">
  <path id="total-spend" d="M4.5,0a.669.669,0,0,1,.643.692V2.075h.325A3.385,3.385,0,0,1,8.4,3.9a.722.722,0,0,1-.231.947A.618.618,0,0,1,7.288,4.6a2.113,2.113,0,0,0-1.828-1.14H4.554l-.054,0-.054,0H3.35A2.126,2.126,0,0,0,1.3,5.412a2.222,2.222,0,0,0,1.548,2.43l3.615.978h0a3.606,3.606,0,0,1,2.511,3.942A3.449,3.449,0,0,1,5.651,15.93H5.143v1.377A.669.669,0,0,1,4.5,18a.669.669,0,0,1-.643-.692V15.93H3.531A3.391,3.391,0,0,1,.6,14.1a.722.722,0,0,1,.233-.946.618.618,0,0,1,.879.25,2.119,2.119,0,0,0,1.83,1.146h.868a.612.612,0,0,1,.185,0H5.65A2.126,2.126,0,0,0,7.7,12.593a2.222,2.222,0,0,0-1.548-2.43L2.536,9.185h0A3.606,3.606,0,0,1,.025,5.243,3.449,3.449,0,0,1,3.349,2.075h.508V.692A.669.669,0,0,1,4.5,0Z" fill="#858585" fill-rule="evenodd"/>
</svg>
