<svg xmlns="http://www.w3.org/2000/svg" width="20.5" height="17.65" viewBox="0 0 20.5 17.65">
  <g id="Grupo_1" data-name="Grupo 1" transform="translate(-2.25 -3.25)">
    <path id="Caminho_21" data-name="Caminho 21" d="M9.85,4a.75.75,0,0,1,.75-.75h3.8a1.7,1.7,0,0,1,1.7,1.7V6.1h3.357a1.7,1.7,0,0,1,1.578,1.07h0l.89,2.225c.007.017.014.034.021.051l.615,1.536a2.656,2.656,0,0,1,.189.982v5.651a1.7,1.7,0,0,1-1.7,1.7H19.311a.75.75,0,0,1,0-1.5H21.05a.2.2,0,0,0,.2-.2V14.25H18.2a.75.75,0,0,1-.75-.75V9.7a.75.75,0,0,1,.75-.75h1.932l-.49-1.224v0a.2.2,0,0,0-.185-.125H16.1v6.85a.75.75,0,0,1-.75.75H3.75v2.5a.2.2,0,0,0,.2.2h1.9a.75.75,0,0,1,0,1.5H3.95a1.7,1.7,0,0,1-1.7-1.7V12.55a.75.75,0,0,1,1.5,0V13.7H14.6V4.95a.2.2,0,0,0-.2-.2H10.6A.75.75,0,0,1,9.85,4Zm9.1,6.45h1.782l.436,1.089a1.155,1.155,0,0,1,.083.427v.784h-2.3ZM8.862,17.9a.75.75,0,0,0,0,1.5H16.3a.75.75,0,0,0,0-1.5Z" fill="#858585" fill-rule="evenodd"/>
    <path id="Caminho_22" data-name="Caminho 22" d="M17.516,17.948a.755.755,0,1,1-.245.164A.754.754,0,0,1,17.516,17.948Zm1.152-1.386a2.256,2.256,0,0,1,.731.488h0a2.254,2.254,0,1,1-.732-.489ZM7.355,17.891a.754.754,0,1,1-.533.221A.754.754,0,0,1,7.355,17.891Zm0-1.5a2.254,2.254,0,1,1-1.594.661A2.254,2.254,0,0,1,7.355,16.391Z" fill="#858585" fill-rule="evenodd"/>
    <path id="Caminho_23" data-name="Caminho 23" d="M2.25,4A.75.75,0,0,1,3,3.25H7.75a.75.75,0,0,1,0,1.5H3A.75.75,0,0,1,2.25,4Zm0,2.85A.75.75,0,0,1,3,6.1H5.85a.75.75,0,0,1,0,1.5H3A.75.75,0,0,1,2.25,6.85ZM3,8.95a.75.75,0,1,0,0,1.5h.95a.75.75,0,1,0,0-1.5Z" fill="#858585" fill-rule="evenodd"/>
  </g>
</svg>
