<svg xmlns="http://www.w3.org/2000/svg" width="33" height="33" viewBox="0 0 33 33">
  <g id="user-on" transform="translate(-897 -614)">
    <g id="Grupo_41" data-name="Grupo 41">
      <rect id="Retângulo_9" data-name="Retângulo 9" width="33" height="33" transform="translate(897 614)" fill="none"/>
      <g id="Grupo_22" data-name="Grupo 22" transform="translate(897.333 614.335)">
        <path id="Caminho_5" data-name="Caminho 5" d="M10.748,4.735a3.657,3.657,0,0,1,5.144-.026l.027.028.027.028L10.753,9.912l-.006-.006h0a3.656,3.656,0,0,1,0-5.171Zm0,5.177h0L9.333,11.32a5.657,5.657,0,0,1,8-8l.033.035L15.947,4.765h0Zm0,0a3.656,3.656,0,0,0,5.193-5.147l1.421-1.408A5.656,5.656,0,0,1,9.333,11.32Zm2.58,5.076a15.991,15.991,0,0,0-7.861,1.951c-2.161,1.258-3.806,3.2-3.806,5.7v1.333A2.333,2.333,0,0,0,4,26.311H16.551a1,1,0,1,0,0-2H4a.333.333,0,0,1-.333-.333V22.644c0-1.525.989-2.915,2.812-3.976a14.005,14.005,0,0,1,6.854-1.68,14.918,14.918,0,0,1,5.446,1,1,1,0,0,0,.742-1.857A16.914,16.914,0,0,0,13.333,14.988Z" fill="#fff" fill-rule="evenodd"/>
        <path id="Caminho_6" data-name="Caminho 6" d="M22.671,17A5.77,5.77,0,0,0,17,22.667a5.667,5.667,0,0,0,5.667,5.667h0a5.667,5.667,0,1,0,0-11.333Zm0-2A7.769,7.769,0,0,0,15,22.667a7.667,7.667,0,0,0,7.666,7.667M22.673,15a7.667,7.667,0,0,1-.006,15.333" fill="#fff" fill-rule="evenodd"/>
        <path id="Caminho_7" data-name="Caminho 7" d="M22.667,19a1,1,0,0,1,1,1v.093a2.778,2.778,0,0,1,.74.413l.066-.038a1,1,0,1,1,1,1.731l-.039.023a2.782,2.782,0,0,1,.009.9l.03.018a1,1,0,1,1-1,1.731l-.021-.013a2.778,2.778,0,0,1-.706.418l-.078.031v.032a1,1,0,0,1-2,0v-.056l-.08-.033a2.776,2.776,0,0,1-.668-.412l-.064.037a1,1,0,0,1-.989-1.738l.08-.046a2.779,2.779,0,0,1,.008-.832l-.089-.051a1,1,0,0,1,.989-1.738l.109.062a2.781,2.781,0,0,1,.7-.409V20A1,1,0,0,1,22.667,19Zm.666,3.247a.779.779,0,1,0-.825,1.205,1.008,1.008,0,0,1,.353.006.791.791,0,0,0,.131-.04.781.781,0,0,0,.257-.171l.024-.025a1.008,1.008,0,0,1,.076-.164,1,1,0,0,1,.095-.137.778.778,0,0,0-.032-.536c-.007-.016-.015-.032-.023-.047s-.028-.042-.041-.064Z" fill="#fff" fill-rule="evenodd"/>
      </g>
    </g>
  </g>
</svg>
